<svg xmlns="http://www.w3.org/2000/svg" width="130" height="33" viewBox="0 0 130 33" fill="none">
<path d="M32.1 16.8C32.1 19.4 31.7 21.7 30.9 23.7C30.1333 25.7 29.05 27.3833 27.65 28.75C26.25 30.0833 24.6 31.1 22.7 31.8C20.8 32.5 18.7333 32.85 16.5 32.85C14.2667 32.85 12.2 32.5 10.3 31.8C8.4 31.1 6.75 30.0833 5.35 28.75C3.98333 27.3833 2.9 25.7 2.1 23.7C1.33333 21.7 0.95 19.4 0.95 16.8C0.95 14.2 1.35 11.9167 2.15 9.95C2.95 7.95 4.05 6.28333 5.45 4.95C6.85 3.58333 8.48333 2.55 10.35 1.85C12.25 1.15 14.3 0.799999 16.5 0.799999C18.7 0.799999 20.75 1.15 22.65 1.85C24.55 2.55 26.2 3.58333 27.6 4.95C29 6.28333 30.1 7.95 30.9 9.95C31.7 11.9167 32.1 14.2 32.1 16.8ZM24 16.8C24 13.6 23.3167 11.2 21.95 9.6C20.6167 7.96667 18.8 7.15 16.5 7.15C14.2333 7.15 12.4167 7.96667 11.05 9.6C9.68333 11.2 9 13.6 9 16.8C9 20.0333 9.66667 22.4667 11 24.1C12.3667 25.7 14.2 26.5 16.5 26.5C18.8 26.5 20.6167 25.7 21.95 24.1C23.3167 22.4667 24 20.0333 24 16.8ZM56.5098 24.95C56.5098 27.4167 55.5931 29.35 53.7598 30.75C51.9264 32.1167 49.2264 32.8 45.6598 32.8C44.2598 32.8 42.9764 32.7 41.8098 32.5C40.6764 32.3 39.6931 32 38.8598 31.6C38.0264 31.2 37.3764 30.7 36.9098 30.1C36.4431 29.5 36.2098 28.8 36.2098 28C36.2098 27.2667 36.3598 26.65 36.6598 26.15C36.9598 25.6167 37.3431 25.1833 37.8098 24.85C38.7764 25.4167 39.8764 25.9167 41.1098 26.35C42.3431 26.7833 43.7764 27 45.4098 27C47.7764 27 48.9598 26.3333 48.9598 25C48.9598 24.4333 48.7431 24 48.3098 23.7C47.9098 23.4 47.2098 23.1333 46.2098 22.9L44.2098 22.45C41.4764 21.8833 39.4431 21.0167 38.1098 19.85C36.7764 18.65 36.1098 16.9833 36.1098 14.85C36.1098 12.4833 37.0598 10.6167 38.9598 9.25C40.8931 7.85 43.4764 7.15 46.7098 7.15C47.9098 7.15 49.0431 7.25 50.1098 7.45C51.1764 7.61667 52.0931 7.88333 52.8598 8.25C53.6264 8.61667 54.2264 9.08333 54.6598 9.65C55.1264 10.1833 55.3598 10.8167 55.3598 11.55C55.3598 12.2167 55.2264 12.8167 54.9598 13.35C54.6931 13.85 54.3431 14.2667 53.9098 14.6C53.6431 14.4333 53.2431 14.25 52.7098 14.05C52.2098 13.85 51.6598 13.6667 51.0598 13.5C50.4598 13.3333 49.8264 13.2 49.1598 13.1C48.4931 13 47.8764 12.95 47.3098 12.95C46.1431 12.95 45.2264 13.1167 44.5598 13.45C43.9264 13.75 43.6098 14.2167 43.6098 14.85C43.6098 15.3167 43.7931 15.6833 44.1598 15.95C44.5264 16.2167 45.1931 16.4667 46.1598 16.7L48.0598 17.15C51.0931 17.8167 53.2598 18.7833 54.5598 20.05C55.8598 21.3167 56.5098 22.95 56.5098 24.95ZM74.3738 13.25C72.5738 13.25 71.0405 13.8333 69.7738 15C68.5072 16.1333 67.8738 17.8167 67.8738 20.05C67.8738 22.2833 68.4738 23.95 69.6738 25.05C70.9072 26.15 72.4572 26.7 74.3238 26.7C75.3905 26.7 76.3238 26.5667 77.1238 26.3C77.9572 26 78.6572 25.7 79.2238 25.4C79.7905 25.8333 80.2238 26.3 80.5238 26.8C80.8572 27.2667 81.0238 27.85 81.0238 28.55C81.0238 29.8167 80.3572 30.8333 79.0238 31.6C77.6905 32.3667 75.8405 32.75 73.4738 32.75C71.4738 32.75 69.6405 32.4833 67.9738 31.95C66.3405 31.4167 64.9405 30.6167 63.7738 29.55C62.6072 28.4833 61.7072 27.1667 61.0738 25.6C60.4405 24 60.1238 22.15 60.1238 20.05C60.1238 17.8833 60.4738 16 61.1738 14.4C61.8738 12.8 62.8238 11.4667 64.0238 10.4C65.2238 9.33333 66.6238 8.53333 68.2238 8C69.8238 7.46667 71.5072 7.2 73.2738 7.2C75.5738 7.2 77.3738 7.61667 78.6738 8.45C80.0072 9.28333 80.6738 10.3333 80.6738 11.6C80.6738 12.2 80.5238 12.75 80.2238 13.25C79.9572 13.75 79.6238 14.1833 79.2238 14.55C78.6238 14.2167 77.9072 13.9167 77.0738 13.65C76.2738 13.3833 75.3738 13.25 74.3738 13.25ZM95.6379 27.15C96.3712 27.15 97.0879 27.0833 97.7879 26.95C98.5212 26.7833 99.0712 26.5833 99.4379 26.35V21.75L95.3379 22.1C94.2712 22.2 93.4046 22.45 92.7379 22.85C92.1046 23.2167 91.7879 23.7833 91.7879 24.55C91.7879 25.35 92.0879 25.9833 92.6879 26.45C93.2879 26.9167 94.2712 27.15 95.6379 27.15ZM95.3379 7.2C97.0712 7.2 98.6379 7.38333 100.038 7.75C101.471 8.08333 102.688 8.61667 103.688 9.35C104.688 10.0833 105.455 11.0167 105.988 12.15C106.555 13.2833 106.838 14.6167 106.838 16.15V27.45C106.838 28.3167 106.605 29.0167 106.138 29.55C105.705 30.05 105.171 30.4833 104.538 30.85C103.505 31.4833 102.238 31.9667 100.738 32.3C99.2379 32.6333 97.5379 32.8 95.6379 32.8C92.2046 32.8 89.4712 32.15 87.4379 30.85C85.4046 29.5167 84.3879 27.5 84.3879 24.8C84.3879 22.5 85.0712 20.75 86.4379 19.55C87.8046 18.35 89.9046 17.6 92.7379 17.3L99.3879 16.6V16.05C99.3879 14.9833 98.9546 14.2 98.0879 13.7C97.2212 13.2 95.9712 12.95 94.3379 12.95C93.0712 12.95 91.8212 13.1 90.5879 13.4C89.3879 13.7 88.3046 14.05 87.3379 14.45C86.9379 14.1833 86.5879 13.7833 86.2879 13.25C86.0212 12.6833 85.8879 12.0833 85.8879 11.45C85.8879 9.98333 86.6546 8.93333 88.1879 8.3C89.1546 7.93333 90.2712 7.66667 91.5379 7.5C92.8379 7.3 94.1046 7.2 95.3379 7.2ZM120.046 31.95C119.712 32.05 119.246 32.1333 118.646 32.2C118.046 32.3 117.379 32.35 116.646 32.35C115.146 32.35 114.062 32.1167 113.396 31.65C112.729 31.15 112.396 30.2 112.396 28.8V13.55C112.396 12.6167 112.629 11.8167 113.096 11.15C113.562 10.4833 114.212 9.9 115.046 9.4C116.146 8.73333 117.462 8.21667 118.996 7.85C120.562 7.45 122.196 7.25 123.896 7.25C127.362 7.25 129.096 8.41667 129.096 10.75C129.096 11.3167 129.012 11.8333 128.846 12.3C128.679 12.7667 128.496 13.1667 128.296 13.5C127.529 13.3333 126.596 13.25 125.496 13.25C124.529 13.25 123.562 13.3667 122.596 13.6C121.629 13.8333 120.779 14.15 120.046 14.55V31.95Z" fill="white"/>
</svg>