<svg xmlns="http://www.w3.org/2000/svg" version="1.0" width="800.000000pt" height="800.000000pt" viewBox="0 0 800.000000 800.000000" preserveAspectRatio="xMidYMid meet">
    <rect width="100%" height="100%" fill="#f7f6f4"/>
<g transform="translate(0.000000,800.000000) scale(0.100000,-0.100000)" fill="#000000" stroke="none">
<path d="M3740 7993 c-823 -62 -1587 -356 -2215 -852 -996 -788 -1555 -1976 -1522 -3236 11 -425 73 -778 206 -1175 562 -1670 2133 -2773 3886 -2727 425 11 778 73 1175 206 1670 562 2773 2133 2727 3886 -11 425 -73 778 -206 1175 -553 1643 -2089 2743 -3811 2728 -107 -1 -215 -3 -240 -5z m700 -287 c700 -91 1327 -352 1865 -775 741 -584 1236 -1425 1380 -2345 64 -412 59 -858 -16 -1261 -176 -950 -717 -1798 -1510 -2365 -551 -395 -1197 -628 -1882 -681 -288 -22 -662 -2 -952 52 -950 176 -1798 717 -2365 1510 -395 551 -628 1197 -681 1882 -22 288 -2 662 52 952 176 951 716 1798 1510 2365 536 384 1178 621 1840 679 155 14 611 6 759 -13z"/>
<path d="M2992 6110 c-67 -41 -62 114 -62 -2107 0 -1961 1 -2019 19 -2060 35 -76 119 -95 202 -45 122 72 2931 1997 2954 2023 52 62 27 151 -58 210 -28 20 -700 478 -1491 1018 -1394 950 -1441 981 -1485 981 -28 0 -59 -8 -79 -20z m1484 -1235 c698 -476 1270 -869 1272 -874 2 -7 -2530 -1741 -2543 -1741 -3 0 -5 783 -5 1740 0 957 1 1740 3 1740 2 0 575 -389 1273 -865z"/>
</g>
</svg>