<svg xmlns="http://www.w3.org/2000/svg" fill="none" viewBox="0 0 55.26 55.1797385620915" style="max-height: 500px" width="55.26" height="55.1797385620915">
<rect width="55.26" height="55.1797" fill="#f7f6f4"/>
<circle fill="#00A699" r="27.5" cy="27.5" cx="27.5"/>
<path fill="white" d="M21 36V18L34 27L21 36Z"/>
<path fill="#1C1C1C" d="M73.8807 21.3438V19.4545H85.1378V21.3438H80.5994V34H78.4119V21.3438H73.8807ZM89.1452 34.2415C88.454 34.2415 87.829 34.1136 87.2702 33.858C86.7115 33.5975 86.2688 33.2211 85.9421 32.7287C85.6201 32.2363 85.4592 31.6326 85.4592 30.9176C85.4592 30.3021 85.5775 29.7955 85.8143 29.3977C86.051 29 86.3706 28.6851 86.7731 28.4531C87.1755 28.2211 87.6254 28.0459 88.1225 27.9276C88.6197 27.8092 89.1263 27.7192 89.6424 27.6577C90.2958 27.5819 90.8261 27.5204 91.2333 27.473C91.6405 27.4209 91.9364 27.3381 92.1211 27.2244C92.3058 27.1108 92.3981 26.9261 92.3981 26.6705V26.6207C92.3981 26.0005 92.2229 25.5199 91.8725 25.179C91.5269 24.8381 91.0108 24.6676 90.3242 24.6676C89.6093 24.6676 89.0458 24.8262 88.6339 25.1435C88.2267 25.456 87.945 25.804 87.7887 26.1875L85.793 25.733C86.0297 25.0701 86.3754 24.535 86.8299 24.1278C87.2892 23.7159 87.8171 23.4176 88.4137 23.233C89.0103 23.0436 89.6377 22.9489 90.2958 22.9489C90.7314 22.9489 91.1931 23.0009 91.6808 23.1051C92.1732 23.2045 92.6325 23.3892 93.0586 23.6591C93.4895 23.929 93.8422 24.3149 94.1168 24.8168C94.3915 25.3139 94.5288 25.9602 94.5288 26.7557V34H92.4549V32.5085H92.3697C92.2324 32.7831 92.0264 33.053 91.7518 33.3182C91.4772 33.5833 91.1244 33.8035 90.6935 33.9787C90.2627 34.1539 89.7466 34.2415 89.1452 34.2415ZM89.6069 32.5369C90.194 32.5369 90.6959 32.4209 91.1126 32.1889C91.534 31.9569 91.8536 31.6539 92.0714 31.2798C92.2939 30.901 92.4052 30.4962 92.4052 30.0653V28.6591C92.3294 28.7348 92.1826 28.8059 91.9648 28.8722C91.7518 28.9337 91.5079 28.9882 91.2333 29.0355C90.9587 29.0781 90.6912 29.1184 90.4308 29.1562C90.1703 29.1894 89.9525 29.2178 89.7773 29.2415C89.3654 29.2936 88.989 29.3812 88.6481 29.5043C88.3119 29.6274 88.042 29.8049 87.8384 30.0369C87.6396 30.2642 87.5401 30.5672 87.5401 30.946C87.5401 31.4716 87.7343 31.8693 88.1225 32.1392C88.5108 32.4044 89.0056 32.5369 89.6069 32.5369ZM99.3104 30.2997L99.2962 27.7074H99.6655L104.012 23.0909H106.555L101.597 28.3466H101.263L99.3104 30.2997ZM97.3572 34V19.4545H99.4808V34H97.3572ZM104.246 34L100.34 28.8153L101.803 27.331L106.853 34H104.246ZM112.743 34.2202C111.668 34.2202 110.742 33.9905 109.966 33.5312C109.194 33.0672 108.597 32.4162 108.176 31.5781C107.759 30.7353 107.551 29.7481 107.551 28.6165C107.551 27.4991 107.759 26.5142 108.176 25.6619C108.597 24.8097 109.184 24.1444 109.937 23.6662C110.695 23.188 111.58 22.9489 112.593 22.9489C113.209 22.9489 113.806 23.0507 114.383 23.2543C114.961 23.4579 115.479 23.7775 115.939 24.2131C116.398 24.6487 116.76 25.2145 117.025 25.9105C117.29 26.6018 117.423 27.4422 117.423 28.4318V29.1847H108.751V27.5938H115.342C115.342 27.035 115.228 26.5402 115.001 26.1094C114.774 25.6738 114.454 25.3305 114.042 25.0795C113.635 24.8286 113.157 24.7031 112.608 24.7031C112.011 24.7031 111.49 24.8499 111.045 25.1435C110.605 25.4323 110.264 25.8111 110.022 26.2798C109.786 26.7438 109.667 27.2481 109.667 27.7926V29.0355C109.667 29.7647 109.795 30.3849 110.051 30.8963C110.311 31.4077 110.673 31.7983 111.137 32.0682C111.601 32.3333 112.144 32.4659 112.764 32.4659C113.166 32.4659 113.533 32.4091 113.865 32.2955C114.196 32.1771 114.483 32.0019 114.724 31.7699C114.966 31.5379 115.15 31.2514 115.278 30.9105L117.288 31.2727C117.127 31.8646 116.838 32.383 116.422 32.8281C116.01 33.2685 115.491 33.6117 114.866 33.858C114.246 34.0994 113.538 34.2202 112.743 34.2202ZM128.247 34.2415C127.556 34.2415 126.931 34.1136 126.372 33.858C125.813 33.5975 125.37 33.2211 125.044 32.7287C124.722 32.2363 124.561 31.6326 124.561 30.9176C124.561 30.3021 124.679 29.7955 124.916 29.3977C125.153 29 125.472 28.6851 125.875 28.4531C126.277 28.2211 126.727 28.0459 127.224 27.9276C127.721 27.8092 128.228 27.7192 128.744 27.6577C129.397 27.5819 129.928 27.5204 130.335 27.473C130.742 27.4209 131.038 27.3381 131.223 27.2244C131.407 27.1108 131.5 26.9261 131.5 26.6705V26.6207C131.5 26.0005 131.324 25.5199 130.974 25.179C130.628 24.8381 130.112 24.6676 129.426 24.6676C128.711 24.6676 128.147 24.8262 127.735 25.1435C127.328 25.456 127.047 25.804 126.89 26.1875L124.895 25.733C125.131 25.0701 125.477 24.535 125.931 24.1278C126.391 23.7159 126.919 23.4176 127.515 23.233C128.112 23.0436 128.739 22.9489 129.397 22.9489C129.833 22.9489 130.295 23.0009 130.782 23.1051C131.275 23.2045 131.734 23.3892 132.16 23.6591C132.591 23.929 132.944 24.3149 133.218 24.8168C133.493 25.3139 133.63 25.9602 133.63 26.7557V34H131.556V32.5085H131.471C131.334 32.7831 131.128 33.053 130.853 33.3182C130.579 33.5833 130.226 33.8035 129.795 33.9787C129.364 34.1539 128.848 34.2415 128.247 34.2415ZM128.708 32.5369C129.296 32.5369 129.797 32.4209 130.214 32.1889C130.636 31.9569 130.955 31.6539 131.173 31.2798C131.395 30.901 131.507 30.4962 131.507 30.0653V28.6591C131.431 28.7348 131.284 28.8059 131.066 28.8722C130.853 28.9337 130.609 28.9882 130.335 29.0355C130.06 29.0781 129.793 29.1184 129.532 29.1562C129.272 29.1894 129.054 29.2178 128.879 29.2415C128.467 29.2936 128.091 29.3812 127.75 29.5043C127.413 29.6274 127.144 29.8049 126.94 30.0369C126.741 30.2642 126.642 30.5672 126.642 30.946C126.642 31.4716 126.836 31.8693 127.224 32.1392C127.612 32.4044 128.107 32.5369 128.708 32.5369ZM146.844 23.0909V24.7955H140.885V23.0909H146.844ZM142.483 20.4773H144.607V30.7969C144.607 31.2088 144.668 31.5189 144.792 31.7273C144.915 31.9309 145.073 32.0705 145.267 32.1463C145.466 32.2173 145.682 32.2528 145.914 32.2528C146.084 32.2528 146.233 32.241 146.361 32.2173C146.489 32.1937 146.588 32.1747 146.659 32.1605L147.043 33.9148C146.92 33.9621 146.745 34.0095 146.517 34.0568C146.29 34.1089 146.006 34.1373 145.665 34.142C145.106 34.1515 144.586 34.0521 144.103 33.8438C143.62 33.6354 143.229 33.3134 142.931 32.8778C142.632 32.4422 142.483 31.8954 142.483 31.2372V20.4773ZM153.671 34.2202C152.648 34.2202 151.756 33.9858 150.994 33.517C150.231 33.0483 149.639 32.3925 149.218 31.5497C148.797 30.7069 148.586 29.7221 148.586 28.5952C148.586 27.4635 148.797 26.474 149.218 25.6264C149.639 24.7789 150.231 24.1207 150.994 23.652C151.756 23.1832 152.648 22.9489 153.671 22.9489C154.694 22.9489 155.586 23.1832 156.349 23.652C157.111 24.1207 157.703 24.7789 158.124 25.6264C158.546 26.474 158.756 27.4635 158.756 28.5952C158.756 29.7221 158.546 30.7069 158.124 31.5497C157.703 32.3925 157.111 33.0483 156.349 33.517C155.586 33.9858 154.694 34.2202 153.671 34.2202ZM153.678 32.4375C154.341 32.4375 154.89 32.2623 155.326 31.9119C155.762 31.5616 156.084 31.0952 156.292 30.5128C156.505 29.9304 156.612 29.2888 156.612 28.5881C156.612 27.892 156.505 27.2528 156.292 26.6705C156.084 26.0833 155.762 25.6122 155.326 25.2571C154.89 24.902 154.341 24.7244 153.678 24.7244C153.011 24.7244 152.457 24.902 152.016 25.2571C151.581 25.6122 151.256 26.0833 151.043 26.6705C150.835 27.2528 150.731 27.892 150.731 28.5881C150.731 29.2888 150.835 29.9304 151.043 30.5128C151.256 31.0952 151.581 31.5616 152.016 31.9119C152.457 32.2623 153.011 32.4375 153.678 32.4375ZM168.037 29.4759V23.0909H170.168V34H168.08V32.1108H167.966C167.715 32.6932 167.313 33.1785 166.759 33.5668C166.21 33.9503 165.525 34.142 164.706 34.142C164.006 34.142 163.385 33.9882 162.846 33.6804C162.31 33.3679 161.889 32.9062 161.581 32.2955C161.278 31.6847 161.127 30.9295 161.127 30.0298V23.0909H163.25V29.7741C163.25 30.5175 163.456 31.1094 163.868 31.5497C164.28 31.9901 164.815 32.2102 165.473 32.2102C165.871 32.2102 166.266 32.1108 166.659 31.9119C167.057 31.7131 167.386 31.4124 167.647 31.0099C167.912 30.6075 168.042 30.0961 168.037 29.4759ZM173.021 34V23.0909H175.074V24.8239H175.188C175.386 24.2367 175.737 23.7751 176.239 23.4389C176.745 23.098 177.318 22.9276 177.957 22.9276C178.09 22.9276 178.246 22.9323 178.426 22.9418C178.611 22.9512 178.755 22.9631 178.859 22.9773V25.0085C178.774 24.9848 178.623 24.9588 178.405 24.9304C178.187 24.8973 177.969 24.8807 177.751 24.8807C177.25 24.8807 176.802 24.9872 176.409 25.2003C176.021 25.4086 175.713 25.6998 175.486 26.0739C175.259 26.4432 175.145 26.8646 175.145 27.3381V34H173.021Z"/>
</svg>